# xmcd CD database file
#
# Track frame offsets:
#	150
#	13988
#	31280
#	51282
#	63212
#	84411
#	101435
#	119572
#	136808
#	163679
#	190838
#	204741
#	225147
#
# Disc length: 3304 seconds
#
# Revision: 0
# Processed by: cddbd v1.5.1PL2 Copyright (c) Steve Scherf et al.
# Submitted via: CDex 1.51
#
DISCID=a60ce60d
DTITLE=Stacey Kent - Let Yourself Go
DYEAR=1999
DGENRE=Jazz
TTITLE0=a fine romance
TTITLE1=by myself
TTITLE2=he loves and she loves
TTITLE3=i guess i'll have to change my
TTITLE4=i won't dance
TTITLE5=i'm putting all my eggs in one
TTITLE6=isn't this a lovely day ?
TTITLE7=let yourself go
TTITLE8=one for my baby
TTITLE9='s wonderful
TTITLE10=shall we dance?
TTITLE11=they all laughed
TTITLE12=they can't take that away from
EXTD=YEAR: 1999
EXTT0=
EXTT1=
EXTT2=
EXTT3=
EXTT4=
EXTT5=
EXTT6=
EXTT7=
EXTT8=
EXTT9=
EXTT10=
EXTT11=
EXTT12=
PLAYORDER=
